<svg height="360" viewBox="0 0 950 360" width="950" xmlns="http://www.w3.org/2000/svg">
<defs>
<marker id="arrow-right-black" markerHeight="6" markerWidth="6" orient="auto" refX="9" refY="5" viewBox="0 0 10 10">
<path d="M 0 0 L 10 5 L 0 10 z" fill="black"/>
</marker>
<marker id="arrow-left-black" markerHeight="6" markerWidth="6" orient="auto" refX="1" refY="5" viewBox="0 0 10 10">
<path d="M 10 0 L 0 5 L 10 10 z" fill="black"/>
</marker>
<marker id="arrow-right-red" markerHeight="6" markerWidth="6" orient="auto" refX="9" refY="5" viewBox="0 0 10 10">
<path d="M 0 0 L 10 5 L 0 10 z" fill="red"/>
</marker>
<marker id="arrow-left-red" markerHeight="6" markerWidth="6" orient="auto" refX="1" refY="5" viewBox="0 0 10 10">
<path d="M 10 0 L 0 5 L 10 10 z" fill="red"/>
</marker>
<marker id="arrow-right-blue" markerHeight="6" markerWidth="6" orient="auto" refX="9" refY="5" viewBox="0 0 10 10">
<path d="M 0 0 L 10 5 L 0 10 z" fill="blue"/>
</marker>
<marker id="arrow-left-blue" markerHeight="6" markerWidth="6" orient="auto" refX="1" refY="5" viewBox="0 0 10 10">
<path d="M 10 0 L 0 5 L 10 10 z" fill="blue"/>
</marker>
</defs>
<g transform="translate(50, 50)">
<g>
<g>
<rect fill="white" height="60" rx="0" stroke="black" stroke-width="2" width="100" x="0" y="0"/>
<text dominant-baseline="middle" font-family="Arial" font-size="15" text-anchor="middle" x="50" y="30">
first
</text>
</g>
<g>
<rect fill="white" height="60" rx="0" stroke="black" stroke-width="2" width="100" x="140" y="100"/>
<text dominant-baseline="middle" font-family="Arial" font-size="15" text-anchor="middle" x="190" y="130">
second
</text>
</g>
<g>
<rect fill="red" height="60" rx="0" stroke="black" stroke-width="2" width="100" x="140" y="0"/>
<text dominant-baseline="middle" font-family="Arial" font-size="15" text-anchor="middle" x="190" y="30">
t
</text>
</g>
<g>
<rect fill="red" height="60" rx="0" stroke="black" stroke-width="5" width="100" x="335.5" y="0"/>
<text dominant-baseline="middle" font-family="Arial" font-size="15" text-anchor="middle" x="385.5" y="30">
forth
</text>
</g>
<g>
<rect fill="white" height="60" rx="0" stroke="black" stroke-width="2" width="319" x="531" y="0"/>
<text dominant-baseline="middle" font-family="Arial" font-size="15" text-anchor="middle" x="690.5" y="30">
fifth_has_a_very_long_name_that
</text>
</g>
<g>
<ellipse cx="385.5" cy="230" fill="white" rx="50" ry="30" stroke="black" stroke-width="2"/>
<text dominant-baseline="middle" font-family="Arial" font-size="15" text-anchor="middle" x="385.5" y="230">
six
</text>
</g>
<g>
<ellipse cx="385.5" cy="130" fill="blue" rx="105.5" ry="30" stroke="black" stroke-width="2"/>
<text dominant-baseline="middle" font-family="Arial" font-size="15" text-anchor="middle" x="385.5" y="130">
seven_has_long_name
</text>
</g>
<path d="M 92 60 L 148 100" fill="none" marker-end="url(#arrow-right-black)" stroke="black" stroke-width="1"/>
<path d="M 100 30 L 140 30" fill="none" marker-end="url(#arrow-right-red)" stroke="red" stroke-width="1"/>
<path d="M 240 30 L 335.5 30" fill="none" marker-end="url(#arrow-right-black)" stroke="black" stroke-width="1"/>
<path d="M 240 104.42455 L 335.5 55.575447" fill="none" marker-end="url(#arrow-right-black)" stroke="black" stroke-width="5"/>
<path d="M 435.5 30 L 531 30" fill="none" marker-end="url(#arrow-right-black)" stroke="black" stroke-width="1"/>
<path d="M 240 155.57545 L 347.4503 210.53723" fill="none" marker-end="url(#arrow-right-blue)" marker-start="url(#arrow-left-blue)" stroke="blue" stroke-width="3"/>
<path d="M 385.5 200 L 385.5 160" fill="none" stroke="black" stroke-width="1"/>
<path d="M 240 130 L 280 130" fill="none" marker-start="url(#arrow-left-black)" stroke="black" stroke-width="1"/>
</g>
</g>
</svg>