<svg height="1200" viewBox="0 0 1200 1200" width="1200" xmlns="http://www.w3.org/2000/svg">
<defs>
<marker id="arrow" markerHeight="6" markerWidth="6" orient="auto-start-reverse" refX="9" refY="5" viewBox="0 0 10 10">
<path d="M 0 0 L 10 5 L 0 10 z" fill="black"/>
</marker>
</defs>
<g transform="translate(600 600)">
<g>
<rect fill="white" height="80" rx="0" stroke="black" stroke-width="2" width="150" x="-75" y="-40"/>
<text dominant-baseline="middle" font-family="Arial" font-size="15" text-anchor="middle" x="0" y="0">
first
</text>
</g>
<g>
<rect fill="white" height="80" rx="0" stroke="black" stroke-width="2" width="150" x="115" y="80"/>
<text dominant-baseline="middle" font-family="Arial" font-size="15" text-anchor="middle" x="190" y="120">
second
</text>
</g>
<g>
<rect fill="red" height="80" rx="0" stroke="black" stroke-width="2" width="150" x="115" y="-40"/>
<text dominant-baseline="middle" font-family="Arial" font-size="15" text-anchor="middle" x="190" y="0">
third
</text>
</g>
<g>
<rect fill="red" height="80" rx="0" stroke="black" stroke-width="5" width="150" x="305" y="80"/>
<text dominant-baseline="middle" font-family="Arial" font-size="15" text-anchor="middle" x="380" y="120">
forth
</text>
</g>
<g>
<rect fill="white" height="80" rx="0" stroke="black" stroke-width="2" width="150" x="495" y="80"/>
<text dominant-baseline="middle" font-family="Arial" font-size="15" text-anchor="middle" x="570" y="120">
fifth
</text>
</g>
<path d="M 63.333332 40 L 126.66667 80" fill="none" marker-end="url(#arrow)" stroke="black" stroke-width="1.5"/>
<path d="M 75 0 L 115 0" fill="none" marker-end="url(#arrow)" stroke="black" stroke-width="1.5"/>
<path d="M 253.33333 40 L 316.66666 80" fill="none" marker-end="url(#arrow)" stroke="black" stroke-width="1.5"/>
<path d="M 265 120 L 305 120" fill="none" marker-end="url(#arrow)" stroke="black" stroke-width="1.5"/>
<path d="M 455 120 L 495 120" fill="none" marker-end="url(#arrow)" stroke="black" stroke-width="1.5"/>
</g>
</svg>